<svg width="26" height="26" viewBox="0 0 26 26" fill="none" xmlns="http://www.w3.org/2000/svg">
<path fill-rule="evenodd" clip-rule="evenodd" d="M20.4221 6.9888C20.5148 6.89627 20.5883 6.7864 20.6385 6.66546C20.6886 6.54452 20.7145 6.41488 20.7146 6.28395C20.7147 6.15301 20.689 6.02334 20.6389 5.90234C20.5889 5.78134 20.5155 5.67138 20.423 5.57873C20.3305 5.48609 20.2206 5.41258 20.0997 5.3624C19.9787 5.31222 19.8491 5.28635 19.7181 5.28627C19.5872 5.28619 19.4575 5.3119 19.3365 5.36193C19.2155 5.41196 19.1056 5.48534 19.0129 5.57787L13 11.5908L6.98879 5.57787C6.80169 5.39077 6.54793 5.28565 6.28333 5.28565C6.01872 5.28565 5.76496 5.39077 5.57786 5.57787C5.39076 5.76497 5.28564 6.01873 5.28564 6.28333C5.28564 6.54793 5.39076 6.8017 5.57786 6.9888L11.5908 13L5.57786 19.0112C5.48522 19.1038 5.41173 19.2138 5.36159 19.3349C5.31145 19.4559 5.28564 19.5856 5.28564 19.7167C5.28564 19.8477 5.31145 19.9774 5.36159 20.0985C5.41173 20.2195 5.48522 20.3295 5.57786 20.4221C5.76496 20.6092 6.01872 20.7143 6.28333 20.7143C6.41434 20.7143 6.54408 20.6885 6.66512 20.6384C6.78617 20.5883 6.89615 20.5148 6.98879 20.4221L13 14.4092L19.0129 20.4221C19.2 20.609 19.4537 20.7139 19.7181 20.7137C19.9826 20.7136 20.2361 20.6084 20.423 20.4213C20.6099 20.2342 20.7148 19.9805 20.7146 19.7161C20.7144 19.4516 20.6092 19.1981 20.4221 19.0112L14.4092 13L20.4221 6.9888Z" fill="#053589"/>
</svg>
